name D:\school\WTK\thesis\model\3dpredictsim\Results\MidTarsalJoint\Fal_s1_bCst_PF_Natali2010_ls150_MT_k50_MTP_T5_ig24.mot
datacolumns 128
datarows 4
range 0.00000000 0.03564674
endheader
time	pelvis_tilt	pelvis_list	pelvis_rotation	pelvis_tx	pelvis_ty	pelvis_tz	hip_flexion_l	hip_adduction_l	hip_rotation_l	hip_flexion_r	hip_adduction_r	hip_rotation_r	knee_angle_l	knee_angle_r	ankle_angle_l	ankle_angle_r	subtalar_angle_l	subtalar_angle_r	mtj_angle_l	mtj_angle_r	mtp_angle_l	mtp_angle_r	lumbar_extension	lumbar_bending	lumbar_rotation	arm_flex_l	arm_add_l	arm_rot_l	arm_flex_r	arm_add_r	arm_rot_r	elbow_flex_l	elbow_flex_r	pro_sup_l	pro_sup_r	glut_med1_l/activation	glut_med2_l/activation	glut_med3_l/activation	glut_min1_l/activation	glut_min2_l/activation	glut_min3_l/activation	semimem_l/activation	semiten_l/activation	bifemlh_l/activation	bifemsh_l/activation	sar_l/activation	add_long_l/activation	add_brev_l/activation	add_mag1_l/activation	add_mag2_l/activation	add_mag3_l/activation	tfl_l/activation	pect_l/activation	grac_l/activation	glut_max1_l/activation	glut_max2_l/activation	glut_max3_l/activation	iliacus_l/activation	psoas_l/activation	quad_fem_l/activation	gem_l/activation	peri_l/activation	rect_fem_l/activation	vas_med_l/activation	vas_int_l/activation	vas_lat_l/activation	med_gas_l/activation	lat_gas_l/activation	soleus_l/activation	tib_post_l/activation	flex_dig_l/activation	flex_hal_l/activation	tib_ant_l/activation	per_brev_l/activation	per_long_l/activation	per_tert_l/activation	ext_dig_l/activation	ext_hal_l/activation	ercspn_l/activation	intobl_l/activation	extobl_l/activation	glut_med1_r/activation	glut_med2_r/activation	glut_med3_r/activation	glut_min1_r/activation	glut_min2_r/activation	glut_min3_r/activation	semimem_r/activation	semiten_r/activation	bifemlh_r/activation	bifemsh_r/activation	sar_r/activation	add_long_r/activation	add_brev_r/activation	add_mag1_r/activation	add_mag2_r/activation	add_mag3_r/activation	tfl_r/activation	pect_r/activation	grac_r/activation	glut_max1_r/activation	glut_max2_r/activation	glut_max3_r/activation	iliacus_r/activation	psoas_r/activation	quad_fem_r/activation	gem_r/activation	peri_r/activation	rect_fem_r/activation	vas_med_r/activation	vas_int_r/activation	vas_lat_r/activation	med_gas_r/activation	lat_gas_r/activation	soleus_r/activation	tib_post_r/activation	flex_dig_r/activation	flex_hal_r/activation	tib_ant_r/activation	per_brev_r/activation	per_long_r/activation	per_tert_r/activation	ext_dig_r/activation	ext_hal_r/activation	ercspn_r/activation	intobl_r/activation	extobl_r/activation	
          0.00000000	         -2.92735228	         -2.83544666	          7.29809714	          0.00000000	          0.91791880	         -0.00173623	        -15.34797099	         -3.00385303	          5.92886952	         26.47294815	          4.38304915	         -0.63692241	        -14.63338112	         -7.69104997	         -7.46953790	          4.54960440	         16.75342756	         -8.55004715	          8.66278621	         -0.96828013	          3.22757804	          1.82981952	         -1.30367778	          1.09235533	         -2.91253575	          5.34736909	        -13.47350962	         17.77907056	         -9.85397530	        -13.47265516	          5.84906609	         42.24888767	         15.90981148	         86.51662706	         86.51662706	          0.28786375	          0.07190724	          0.06977722	          0.28022148	          0.12462771	          0.08597110	          0.05000187	          0.05000021	          0.05000018	          0.05000056	          0.08597410	          0.05000116	          0.05000037	          0.05000053	          0.05000083	          0.05000055	          0.26935950	          0.05000368	          0.05000099	          0.05000838	          0.05000284	          0.05000080	          0.29764601	          0.56662404	          0.05000141	          0.05000433	          0.05624180	          0.24585804	          0.05702685	          0.10213500	          0.12961518	          0.17858137	          0.24941301	          0.27233002	          0.16898580	          0.10912200	          0.16202207	          0.05000021	          0.18229440	          0.21902841	          0.05000080	          0.06121694	          0.05000055	          0.05064589	          0.05797723	          0.05990468	          0.24126937	          0.24067579	          0.26529095	          0.32963379	          0.24050651	          0.19269996	          0.15386766	          0.08295903	          0.09857887	          0.07176294	          0.05000110	          0.10300402	          0.24011218	          0.23036313	          0.16242238	          0.12165540	          0.05000081	          0.05991731	          0.12421991	          0.05000153	          0.13330846	          0.11162122	          0.05000436	          0.05000093	          0.42408558	          0.16399905	          0.17851185	          0.05000016	          0.05595142	          0.05469137	          0.05001089	          0.05749198	          0.05990166	          0.05085807	          0.05000011	          0.05000061	          0.05000054	          0.52393979	          0.34558249	          0.19316465	          0.35174525	          0.51360681	          0.23912564	          0.05392339	          0.12340192	          0.07226714	
          0.01188225	         -2.92253426	         -2.92365499	          7.50457804	          0.01856396	          0.91679234	         -0.00153603	        -15.29521278	         -3.31459598	          5.77369763	         25.64530320	          4.65409646	         -0.35048790	        -16.36843255	         -8.19261021	         -7.97808832	          3.83350973	         17.22614436	         -8.78720975	          6.41449955	         -0.89339768	          5.67898780	          1.88686939	         -1.06500756	          1.29721767	         -2.96939929	          4.87245631	        -13.48611382	         17.90333067	        -10.79076932	        -13.46832999	          5.94693672	         43.34750338	         15.56160371	         86.51662706	         86.51662706	          0.24028003	          0.06002102	          0.05824351	          0.23390080	          0.10402676	          0.07176021	          0.05000334	          0.05000036	          0.05000036	          0.05000032	          0.07176288	          0.05360138	          0.05000179	          0.05000204	          0.05000344	          0.05000188	          0.22483421	          0.05042393	          0.05000279	          0.05001054	          0.05000537	          0.05000246	          0.24844473	          0.52581050	          0.05000287	          0.05001230	          0.05000228	          0.20521735	          0.12340156	          0.12340134	          0.10819665	          0.14906160	          0.20818468	          0.22731345	          0.14105223	          0.09108413	          0.13523970	          0.08799686	          0.16861835	          0.20853557	          0.05000199	          0.12023084	          0.05001252	          0.06718111	          0.05000002	          0.05000237	          0.34854731	          0.35730713	          0.38445030	          0.27514509	          0.20075790	          0.23781721	          0.12843333	          0.07133754	          0.08229205	          0.05990074	          0.05000202	          0.08597735	          0.20042133	          0.19228399	          0.13557419	          0.14884675	          0.05000081	          0.05001342	          0.10368648	          0.22143969	          0.19343887	          0.14183749	          0.05000010	          0.05000013	          0.35398366	          0.13688993	          0.14900411	          0.05000019	          0.08214744	          0.08417777	          0.06391034	          0.05000004	          0.05000013	          0.05000001	          0.05000041	          0.05000052	          0.05000049	          0.61036731	          0.35055398	          0.20080438	          0.49845654	          0.54949620	          0.33472873	          0.07438826	          0.10300341	          0.06032128	
          0.02376450	         -2.91640297	         -3.00800509	          7.66744631	          0.03702320	          0.91589553	         -0.00130261	        -15.13225707	         -3.60354872	          5.63700591	         24.89158141	          4.93851262	         -0.07362684	        -18.20112529	         -8.80237347	         -8.58920352	          3.10733519	         17.60240778	         -9.02311377	          3.84600289	         -0.93319849	          8.42950364	          1.91714769	         -0.84546405	          1.50975211	         -3.01677332	          4.39117771	        -13.49755395	         18.00136939	        -11.64809917	        -13.46281286	          6.08105728	         44.32625229	         15.20958511	         86.51662706	         86.51662706	          0.23262881	          0.05009960	          0.05000020	          0.19523709	          0.08683115	          0.05989836	          0.05000183	          0.05000021	          0.05000025	          0.05000013	          0.05990072	          0.05576943	          0.09528076	          0.05020418	          0.05004582	          0.12790289	          0.18766898	          0.05001646	          0.05000063	          0.05000649	          0.05000449	          0.05000417	          0.20737648	          0.48007972	          0.05000035	          0.05000121	          0.05000030	          0.17129461	          0.10300322	          0.10300305	          0.09031168	          0.12442150	          0.17377146	          0.18973819	          0.11773612	          0.07602794	          0.11288449	          0.15292412	          0.16149436	          0.17406463	          0.15559054	          0.17463646	          0.05000075	          0.09353355	          0.05000005	          0.05000005	          0.43011717	          0.42038949	          0.43558270	          0.26212539	          0.17083867	          0.23483545	          0.10720496	          0.08660729	          0.07997938	          0.05000154	          0.05000051	          0.07176533	          0.16729343	          0.18978006	          0.20767238	          0.18145624	          0.05000047	          0.05006981	          0.10077744	          0.26163919	          0.22485396	          0.18624573	          0.05000023	          0.05000020	          0.29546969	          0.11426197	          0.14827282	          0.05000013	          0.14544743	          0.15106328	          0.10973023	          0.05000006	          0.05000012	          0.05000002	          0.05000003	          0.05000027	          0.05000025	          0.64832859	          0.29260696	          0.16761115	          0.48825028	          0.56584235	          0.36413159	          0.08697030	          0.08597680	          0.05035011	
          0.03564674	         -2.90909958	         -3.09140425	          7.79118044	          0.05523217	          0.91530621	         -0.00104079	        -14.81295701	         -3.86426992	          5.50814319	         24.21345432	          5.23792124	          0.20282267	        -20.19520180	         -9.50369257	         -9.38715091	          2.31351523	         17.86123821	         -9.23514956	          1.21589196	         -0.98545236	         11.04861377	          1.94255189	         -0.65102676	          1.73018008	         -3.05405528	          3.93552128	        -13.50505497	         18.10141648	        -12.40589489	        -13.45699159	          6.23884954	         45.15791600	         14.85786591	         86.51662706	         86.51662706	          0.19417685	          0.05000029	          0.05000016	          0.16296459	          0.07247803	          0.05000048	          0.05003539	          0.05000294	          0.05000396	          0.05000039	          0.05000184	          0.05000531	          0.24585212	          0.05000826	          0.09454583	          0.12340104	          0.15664741	          0.05000828	          0.05000204	          0.05000476	          0.05000295	          0.05000211	          0.17309687	          0.44144729	          0.05000025	          0.05000098	          0.05000026	          0.14297936	          0.08597665	          0.08597651	          0.07538304	          0.10385444	          0.14504681	          0.15837417	          0.09827428	          0.06346067	          0.09422471	          0.22018775	          0.13479934	          0.14529158	          0.19649789	          0.20342308	          0.13208992	          0.11728409	          0.05000004	          0.05000006	          0.52922410	          0.50069752	          0.49001533	          0.21879707	          0.23301189	          0.27185549	          0.08948507	          0.08765936	          0.07495017	          0.05000095	          0.05000062	          0.05990251	          0.13963973	          0.15841116	          0.20772498	          0.20898802	          0.05000049	          0.05000240	          0.08411972	          0.32094940	          0.26696686	          0.22381224	          0.05000011	          0.05000012	          0.24662819	          0.09537447	          0.12376343	          0.05000013	          0.25524317	          0.26088481	          0.20439424	          0.05000009	          0.05000028	          0.05000005	          0.13513808	          0.08585609	          0.05405417	          0.72635700	          0.24423863	          0.13990481	          0.40754185	          0.49860824	          0.31824181	          0.09683798	          0.07176472	          0.05000006	
